<mxfile host="www.draw.io" modified="2019-10-21T04:02:18.380Z" agent="Mozilla/5.0 (Windows NT 10.0; Win64; x64) AppleWebKit/537.36 (KHTML, like Gecko) Chrome/77.0.3865.120 Safari/537.36" etag="GDs-ktNTGL8cuFooF16L" version="12.1.3" type="github" pages="1">
  <diagram id="3ekSEBoFaXlEA2rRXAN_" name="Page-1">
    <mxGraphModel dx="808" dy="506" grid="1" gridSize="10" guides="1" tooltips="1" connect="1" arrows="1" fold="1" page="1" pageScale="1" pageWidth="827" pageHeight="1169" math="0" shadow="0">
      <root>
        <mxCell id="0"/>
        <mxCell id="1" parent="0"/>
        <mxCell id="42jAFBQ__meTakCZj-UW-2" value="«interface»&lt;br&gt;&lt;b&gt;Processor&lt;/b&gt;" style="html=1;" vertex="1" parent="1">
          <mxGeometry x="353" y="190" width="110" height="50" as="geometry"/>
        </mxCell>
        <mxCell id="42jAFBQ__meTakCZj-UW-9" style="edgeStyle=orthogonalEdgeStyle;rounded=0;orthogonalLoop=1;jettySize=auto;html=1;exitX=0.5;exitY=0;exitDx=0;exitDy=0;" edge="1" parent="1" source="42jAFBQ__meTakCZj-UW-4">
          <mxGeometry relative="1" as="geometry">
            <mxPoint x="407" y="240" as="targetPoint"/>
          </mxGeometry>
        </mxCell>
        <mxCell id="42jAFBQ__meTakCZj-UW-4" value="&lt;p style=&quot;margin: 0px ; margin-top: 4px ; text-align: center&quot;&gt;&lt;b&gt;Class Analyzer&lt;/b&gt;&lt;/p&gt;&lt;hr size=&quot;1&quot;&gt;&lt;div style=&quot;height: 2px&quot;&gt;&lt;/div&gt;" style="verticalAlign=top;align=left;overflow=fill;fontSize=12;fontFamily=Helvetica;html=1;" vertex="1" parent="1">
          <mxGeometry x="355" y="290" width="107" height="50" as="geometry"/>
        </mxCell>
        <mxCell id="42jAFBQ__meTakCZj-UW-8" style="edgeStyle=orthogonalEdgeStyle;rounded=0;orthogonalLoop=1;jettySize=auto;html=1;exitX=0.5;exitY=0;exitDx=0;exitDy=0;entryX=0.5;entryY=1;entryDx=0;entryDy=0;" edge="1" parent="1" source="42jAFBQ__meTakCZj-UW-6" target="42jAFBQ__meTakCZj-UW-2">
          <mxGeometry relative="1" as="geometry"/>
        </mxCell>
        <mxCell id="42jAFBQ__meTakCZj-UW-6" value="&lt;p style=&quot;margin: 0px ; margin-top: 4px ; text-align: center&quot;&gt;&lt;b&gt;Class Fetcher&lt;/b&gt;&lt;/p&gt;&lt;hr size=&quot;1&quot;&gt;&lt;div style=&quot;height: 2px&quot;&gt;&lt;/div&gt;" style="verticalAlign=top;align=left;overflow=fill;fontSize=12;fontFamily=Helvetica;html=1;" vertex="1" parent="1">
          <mxGeometry x="220" y="290" width="107" height="50" as="geometry"/>
        </mxCell>
        <mxCell id="42jAFBQ__meTakCZj-UW-10" style="edgeStyle=orthogonalEdgeStyle;rounded=0;orthogonalLoop=1;jettySize=auto;html=1;exitX=0.5;exitY=0;exitDx=0;exitDy=0;" edge="1" parent="1" source="42jAFBQ__meTakCZj-UW-7">
          <mxGeometry relative="1" as="geometry">
            <mxPoint x="410" y="240" as="targetPoint"/>
          </mxGeometry>
        </mxCell>
        <mxCell id="42jAFBQ__meTakCZj-UW-7" value="&lt;p style=&quot;margin: 0px ; margin-top: 4px ; text-align: center&quot;&gt;&lt;b&gt;Class Tramsit&lt;/b&gt;&lt;/p&gt;&lt;hr size=&quot;1&quot;&gt;&lt;div style=&quot;height: 2px&quot;&gt;&lt;/div&gt;" style="verticalAlign=top;align=left;overflow=fill;fontSize=12;fontFamily=Helvetica;html=1;" vertex="1" parent="1">
          <mxGeometry x="490" y="290" width="107" height="50" as="geometry"/>
        </mxCell>
        <mxCell id="42jAFBQ__meTakCZj-UW-11" value="«interface»&lt;br&gt;&lt;b&gt;SynEngine&lt;/b&gt;" style="html=1;" vertex="1" parent="1">
          <mxGeometry x="30" y="110" width="110" height="50" as="geometry"/>
        </mxCell>
        <mxCell id="42jAFBQ__meTakCZj-UW-12" value="SynRule" style="swimlane;fontStyle=0;childLayout=stackLayout;horizontal=1;startSize=26;fillColor=none;horizontalStack=0;resizeParent=1;resizeParentMax=0;resizeLast=0;collapsible=1;marginBottom=0;" vertex="1" parent="1">
          <mxGeometry x="610" y="200" width="140" height="104" as="geometry"/>
        </mxCell>
        <mxCell id="42jAFBQ__meTakCZj-UW-13" value="+ field: type" style="text;strokeColor=none;fillColor=none;align=left;verticalAlign=top;spacingLeft=4;spacingRight=4;overflow=hidden;rotatable=0;points=[[0,0.5],[1,0.5]];portConstraint=eastwest;" vertex="1" parent="42jAFBQ__meTakCZj-UW-12">
          <mxGeometry y="26" width="140" height="26" as="geometry"/>
        </mxCell>
        <mxCell id="42jAFBQ__meTakCZj-UW-14" value="+ field: type" style="text;strokeColor=none;fillColor=none;align=left;verticalAlign=top;spacingLeft=4;spacingRight=4;overflow=hidden;rotatable=0;points=[[0,0.5],[1,0.5]];portConstraint=eastwest;" vertex="1" parent="42jAFBQ__meTakCZj-UW-12">
          <mxGeometry y="52" width="140" height="26" as="geometry"/>
        </mxCell>
        <mxCell id="42jAFBQ__meTakCZj-UW-15" value="+ field: type" style="text;strokeColor=none;fillColor=none;align=left;verticalAlign=top;spacingLeft=4;spacingRight=4;overflow=hidden;rotatable=0;points=[[0,0.5],[1,0.5]];portConstraint=eastwest;" vertex="1" parent="42jAFBQ__meTakCZj-UW-12">
          <mxGeometry y="78" width="140" height="26" as="geometry"/>
        </mxCell>
        <mxCell id="42jAFBQ__meTakCZj-UW-22" style="edgeStyle=orthogonalEdgeStyle;rounded=0;orthogonalLoop=1;jettySize=auto;html=1;exitX=0.5;exitY=0;exitDx=0;exitDy=0;entryX=0.5;entryY=1;entryDx=0;entryDy=0;" edge="1" parent="1" source="42jAFBQ__meTakCZj-UW-18" target="42jAFBQ__meTakCZj-UW-11">
          <mxGeometry relative="1" as="geometry"/>
        </mxCell>
        <mxCell id="42jAFBQ__meTakCZj-UW-18" value="&lt;p style=&quot;margin: 0px ; margin-top: 4px ; text-align: center&quot;&gt;&lt;b&gt;SynRuleEngine&lt;/b&gt;&lt;/p&gt;&lt;hr size=&quot;1&quot;&gt;&lt;p style=&quot;margin: 0px ; margin-left: 4px&quot;&gt;+ field: Type&lt;/p&gt;&lt;p style=&quot;margin: 0px ; margin-left: 4px&quot;&gt;&lt;br&gt;&lt;/p&gt;&lt;p style=&quot;margin: 0px ; margin-left: 4px&quot;&gt;&lt;br&gt;&lt;/p&gt;&lt;hr size=&quot;1&quot;&gt;&lt;p style=&quot;margin: 0px ; margin-left: 4px&quot;&gt;+ method(): Type&lt;/p&gt;" style="verticalAlign=top;align=left;overflow=fill;fontSize=12;fontFamily=Helvetica;html=1;" vertex="1" parent="1">
          <mxGeometry x="20" y="252" width="170" height="138" as="geometry"/>
        </mxCell>
        <mxCell id="42jAFBQ__meTakCZj-UW-21" value="+ item: attribute" style="text;strokeColor=none;fillColor=none;align=left;verticalAlign=top;spacingLeft=4;spacingRight=4;overflow=hidden;rotatable=0;points=[[0,0.5],[1,0.5]];portConstraint=eastwest;" vertex="1" parent="1">
          <mxGeometry x="20" y="302" width="100" height="26" as="geometry"/>
        </mxCell>
        <mxCell id="42jAFBQ__meTakCZj-UW-24" value="1 new SpringApplication&lt;br&gt;2 添加ListListener&lt;br&gt;3 启动 SpringApplication&lt;br&gt;4 执行主启动类的各类函数" style="rounded=0;whiteSpace=wrap;html=1;" vertex="1" parent="1">
          <mxGeometry x="120" y="500" width="180" height="90" as="geometry"/>
        </mxCell>
      </root>
    </mxGraphModel>
  </diagram>
</mxfile>
